<svg height="100%" version="1.1" width="100%" xmlns="http://www.w3.org/2000/svg" preserveAspectRatio="xMidYMid meet" viewBox="0 0 600 442" xmlns:xlink="http://www.w3.org/1999/xlink"><desc>Created with Snap</desc><defs/><g id="root" contentwidth="136.90000000000003" contentheight="189.8">
          <rect class="background" height="2000%" width="2000%" y="-1000%" x="-1000%" style="" fill="#ffffff"/>
          <rect class="watermarklayer" height="100%" width="100%" y="0" x="0" style="" fill="none"/>
          <g class="content" id="content" transform="matrix(1,0,0,1,-0.65,14.1)">
            <g class="icon">
            <svg height="120" version="1.1" width="114" xmlns="http://www.w3.org/2000/svg" x="243" y="112" preserveAspectRatio="none" transform="matrix(1,0,0,1,0,0)" class="none"><desc>Created with Snap</desc><defs/><svg xmlns="http://www.w3.org/2000/svg" viewBox="243 112 114 120"><defs><linearGradient x1="50%" y1="0%" x2="50%" y2="100%" id="prefix-H3w-linearGradient-1"><stop stop-color="#8B32DB" offset="0%"/><stop stop-color="#AD42E5" offset="100%"/></linearGradient><linearGradient x1="100%" y1="50%" x2="0%" y2="50%" id="prefix-H3w-linearGradient-2"><stop stop-color="#C729F1" offset="0%"/><stop stop-color="#2DB5E2" offset="100%"/></linearGradient></defs><path d="M349.59 181.853c7.153 4.2 9.54 13.393 5.334 20.534A60.084 60.084 0 0 1 303.096 232c-20.533 0-38.66-10.28-49.5-25.968l36.375-7.038A29.967 29.967 0 0 0 303.096 202c10.586 0 20.2-5.498 25.63-14.329l.298-.494c4.206-7.14 13.415-9.524 20.567-5.324ZM303.097 112a60.048 60.048 0 0 1 40.505 15.67 45.672 45.672 0 0 0-26.142-8.17c-25.307 0-45.823 20.483-45.823 45.75 0 4.425.629 8.704 1.803 12.751h.21a29.768 29.768 0 0 1 1.007 3.707l-21.104 24.262C246.896 196.31 243 184.61 243 172c0-33.137 26.906-60 60.096-60Z" id="prefix-H3w-形状结合" fill="url(#prefix-H3w-linearGradient-1)" fill-rule="nonzero"/></svg></svg><svg height="59" version="1.1" width="85" xmlns="http://www.w3.org/2000/svg" x="272" y="119" preserveAspectRatio="none" transform="matrix(1,0,0,1,0,0)" class="none"><desc>Created with Snap</desc><defs/><svg xmlns="http://www.w3.org/2000/svg" viewBox="272 119 85 59"><defs><linearGradient x1="50%" y1="0%" x2="50%" y2="100%" id="prefix-Z5K-linearGradient-1"><stop stop-color="#8B32DB" offset="0%"/><stop stop-color="#AD42E5" offset="100%"/></linearGradient><linearGradient x1="100%" y1="50%" x2="0%" y2="50%" id="prefix-Z5K-linearGradient-2"><stop stop-color="#C729F1" offset="0%"/><stop stop-color="#2DB5E2" offset="100%"/></linearGradient></defs><path d="M317.459 119.5c9.72 0 18.734 3.022 26.15 8.176a60.207 60.207 0 0 1 11.13 13.626c4.25 7.116 1.918 16.323-5.209 20.566-7.001 4.169-16.026 1.995-20.37-4.83l-.228-.37C323.537 147.635 313.814 142 303.096 142c-16.595 0-30.048 13.431-30.048 30 0 2.055.207 4.062.601 6.002l-.21-.001a45.703 45.703 0 0 1-1.803-12.751c0-25.267 20.516-45.75 45.823-45.75Z" id="prefix-Z5K-形状结合" fill="url(#prefix-Z5K-linearGradient-2)" fill-rule="nonzero"/></svg></svg></g>
            <g id="icon_name_and_slogan_gap">
            </g>
            <g class="name_and_slogan" id="name_and_slogan_id">
              <g class="name"><g id="nameDefaultGroup"><path d="M232.2 267.6 L242.4 267.6 L250.7 293.2 L250.8 293.2 L259.2 267.6 L269.4 267.6 L256.6 301.8 L245 301.8 L232.2 267.6 M296.3 275 L284.9 275 L284.9 301.8 L275.6 301.8 L275.6 267.6 L320.1 267.6 Q322.8 267.6 324.7 270 Q326.7 272.5 326.7 275.9 L326.7 301.8 L317.4 301.8 L317.4 275 L305.5 275 L305.6 301.8 L296.3 301.8 L296.3 275 M367.2 299.4 Q365.2 301.8 362.5 301.8 L341.4 301.8 Q338.8 301.8 336.7 299.4 Q334.6 297 334.6 293.5 L334.6 275.9 Q334.6 272.5 336.7 270 Q338.7 267.6 341.4 267.6 L362.5 267.6 Q365.2 267.6 367.2 270 Q369.1 272.5 369.1 275.9 L369.1 293.5 Q369.1 297 367.2 299.4 Z M343.9 294.5 L359.8 294.5 L359.8 274.9 L343.9 274.9 L343.9 294.5 " style="" fill="#000000" transform="matrix(1,0,0,1,0,0)"/></g></g>
              <g class="slogan"><g id="sloganDefaultGroup"/></g>
            </g>
            <g class="border">
            </g>
          </g>
          <defs id="defs">
            <mask xmlns="http://www.w3.org/2000/svg" id="mask">
                <rect id="showAll" fill="white" x="243" y="112" width="114" height="120"/>
                <rect id="hideNameBg" fill="black" x="0" y="0" width="0" height="0" stroke-width="2" stroke="black"/>
                <rect id="hideSloganBg" fill="black" x="0" y="0" width="0" height="0" stroke-width="2" stroke="black"/>
            </mask>
          
          </defs>
        </g>
        </svg>